<svg xmlns="http://www.w3.org/2000/svg" xmlns:xlink="http://www.w3.org/1999/xlink" viewBox="0 0 102.545 54.159">
  <defs>
    <style>
      .cls-1 {
        fill: #707070;
      }

      .cls-2 {
        clip-path: url(#clip-path);
      }
    </style>
    <clipPath id="clip-path">
      <path id="Path_60" data-name="Path 60" class="cls-1" d="M0,20.2H102.545V-33.961H0Z" transform="translate(0 33.961)"/>
    </clipPath>
  </defs>
  <g id="Group_63" data-name="Group 63" class="cls-2">
    <g id="Group_55" data-name="Group 55" transform="translate(70.79 0)">
      <path id="Path_52" data-name="Path 52" class="cls-1" d="M7.7,7.057a8.863,8.863,0,0,1-.043.888c-.276,2.871-2,4.566-4.714,4.566s-4.48-1.674-4.756-4.566a8.864,8.864,0,0,1-.043-.888V-11.865h-11.1V7.572c0,.128,0,.254.006.373.163,8.821,6.5,14.539,15.888,14.539S18.635,16.765,18.8,7.945c.006-.12.006-.246.006-.373V-11.865H7.7Z" transform="translate(12.95 11.865)"/>
    </g>
    <g id="Group_56" data-name="Group 56" transform="translate(-0.001 0)">
      <path id="Path_53" data-name="Path 53" class="cls-1" d="M5.925,1.7C3.211,1.7,1.444.028,1.17-2.863H-9.963c.163,8.821,6.5,14.538,15.888,14.538S21.616,5.958,21.779-2.863H10.639C10.364.006,8.64,1.7,5.925,1.7" transform="translate(9.963 2.863)"/>
    </g>
    <g id="Group_57" data-name="Group 57" transform="translate(35.398 0)">
      <path id="Path_54" data-name="Path 54" class="cls-1" d="M5.925,1.7C3.211,1.7,1.444.028,1.168-2.863H-9.963c.163,8.821,6.5,14.538,15.888,14.538S21.614,5.958,21.777-2.863H10.639C10.364.006,8.64,1.7,5.925,1.7" transform="translate(9.963 2.863)"/>
    </g>
    <g id="Group_58" data-name="Group 58" transform="translate(-0.001 19.81)">
      <path id="Path_55" data-name="Path 55" class="cls-1" d="M5.925,1.7C3.211,1.7,1.444.028,1.17-2.863H-9.963c.163,8.821,6.5,14.538,15.888,14.538S21.616,5.958,21.779-2.863H10.639C10.364.008,8.64,1.7,5.925,1.7" transform="translate(9.963 2.863)"/>
    </g>
    <g id="Group_59" data-name="Group 59" transform="translate(35.398 19.81)">
      <path id="Path_56" data-name="Path 56" class="cls-1" d="M5.925,1.7C3.211,1.7,1.444.028,1.168-2.863H-9.963c.163,8.821,6.5,14.538,15.888,14.538S21.614,5.958,21.777-2.863H10.639C10.364.008,8.64,1.7,5.925,1.7" transform="translate(9.963 2.863)"/>
    </g>
    <g id="Group_60" data-name="Group 60" transform="translate(-0.001 39.621)">
      <path id="Path_57" data-name="Path 57" class="cls-1" d="M5.925,1.7C3.211,1.7,1.444.028,1.17-2.863H-9.963c.163,8.821,6.5,14.538,15.888,14.538S21.616,5.958,21.779-2.863H10.639C10.364.006,8.64,1.7,5.925,1.7" transform="translate(9.963 2.863)"/>
    </g>
    <g id="Group_61" data-name="Group 61" transform="translate(35.398 39.621)">
      <path id="Path_58" data-name="Path 58" class="cls-1" d="M5.925,1.7C3.211,1.7,1.444.028,1.168-2.863H-9.963c.163,8.821,6.5,14.538,15.888,14.538S21.614,5.958,21.777-2.863H10.639C10.364.006,8.64,1.7,5.925,1.7" transform="translate(9.963 2.863)"/>
    </g>
    <g id="Group_62" data-name="Group 62" transform="translate(70.798 39.621)">
      <path id="Path_59" data-name="Path 59" class="cls-1" d="M5.925,1.7C3.211,1.7,1.444.028,1.169-2.863H-9.962C-9.8,5.958-3.468,11.675,5.925,11.675S21.615,5.958,21.778-2.863H10.64C10.363.006,8.639,1.7,5.925,1.7" transform="translate(9.962 2.863)"/>
    </g>
  </g>
</svg>
